<?xml version="1.0"?>
<svg xmlns="http://www.w3.org/2000/svg" viewBox="0 0 50 50">
    <path fill="#f4991a"  style="line-height:normal;text-indent:0;text-align:start;text-decoration-line:none;text-decoration-style:solid;text-decoration-color:#f4991a;text-transform:none;block-progression:tb;isolation:auto;mix-blend-mode:normal" d="M 14.228516 5.0039062 C 11.096516 5.0041563 7.9655313 6.1975312 5.5820312 8.5820312 C 0.81303125 13.351031 0.81303125 21.109906 5.5820312 25.878906 C 5.7160313 26.013906 24.291016 44.705078 24.291016 44.705078 C 24.479016 44.894078 24.733 45 25 45 C 25.267 45 25.520984 44.894078 25.708984 44.705078 L 42.310547 28.060547 L 42.273438 28.023438 L 44.417969 25.878906 C 49.186058 21.110817 49.186058 13.35012 44.417969 8.5820312 C 42.033924 6.1979868 38.901562 5.0058594 35.769531 5.0058594 C 32.6375 5.0058594 29.505138 6.1979868 27.121094 8.5820312 L 25 10.703125 L 22.878906 8.5820312 C 20.494406 6.1965312 17.360516 5.0036562 14.228516 5.0039062 z M 35.769531 6.9941406 C 38.3855 6.9941406 41.001951 7.9941382 43.003906 9.9960938 C 47.007817 14.000005 47.007817 20.460933 43.003906 24.464844 L 36.464844 31.003906 C 32.699305 34.769445 26.762579 34.991004 22.738281 31.673828 L 26.716797 27.697266 C 27.123657 27.890633 27.560476 28 28 28 C 28.765906 28 29.539603 27.702585 30.121094 27.121094 L 32.121094 25.121094 C 33.284167 23.958021 33.284167 22.041979 32.121094 20.878906 C 31.539557 20.29737 30.769785 20.005859 30 20.005859 C 29.230215 20.005859 28.460443 20.29737 27.878906 20.878906 L 25.878906 22.878906 C 24.964534 23.793278 24.781357 25.167852 25.304688 26.28125 L 21.324219 30.257812 C 18.009813 26.233568 18.231559 20.299691 21.996094 16.535156 L 28.535156 9.9960938 C 30.537112 7.9941382 33.153562 6.9941406 35.769531 6.9941406 z M 30 21.994141 C 30.253715 21.994141 30.507568 22.093501 30.707031 22.292969 C 31.105958 22.691896 31.105958 23.308104 30.707031 23.707031 L 28.707031 25.707031 C 28.506522 25.90754 28.258094 26 28 26 C 27.761544 26 27.535535 25.910379 27.34375 25.740234 A 1.0001 1.0001 0 0 0 27.259766 25.65625 C 26.904804 25.257191 26.909075 24.676863 27.292969 24.292969 L 29.292969 22.292969 C 29.492432 22.093505 29.746285 21.994141 30 21.994141 z" font-weight="400" font-family="sans-serif" white-space="normal" overflow="visible"/>
</svg>
